# xmcd
#
# Track frame offsets:
#	150
#	9812
#	18717
#	29242
#	40875
#	51907
#	60760
#	73362
#	82987
#	94917
#	106722
#	116762
#	125502
#	136635
#	147640
#	156860
#	166930
#	175220
#	185307
#	194190
#	207647
#	219705
#	234355
#	243985
#	255050
#	264417
#	271915
#	282657
#
# Disc length: 3927 seconds
#
# Revision: 0
# Processed by: cddbd v1.5PL3 Copyright (c) Steve Scherf et al.
# Submitted via: dBpowerAMP V4.0
#
DISCID=9b0f551c
DTITLE=Various Artist - Aladdin and Imperial R&B Vocal Group Magic Vol. 4
DYEAR=1900
DGENRE=R&B
TTITLE0=Spotlighters - Please Be My Girlfriend
TTITLE1=Chestnuts - Wiggle, Wiggle
TTITLE2=Three Friends - Dedicated (To The Songs I Love)
TTITLE3=Turbans - Six Questions
TTITLE4=Four Buddies - I want To Be The Boy You Love
TTITLE5=Five Keys - How Do You Expect Me To Get It
TTITLE6=Five Keys - Old McDonald
TTITLE7=Velvetones - My Every Thought
TTITLE8=Patty Anne and The Flames - Sorrowful Heart
TTITLE9=Bees - Snatchin' Back
TTITLE10=Spotlighters - It's Cold
TTITLE11=Daybrteakers - Up, Up And Away
TTITLE12=Little Wilbur Whitfield and The Pleasers - For The Lady
TTITLE13=Sharps - Lock My Heart
TTITLE14=Scholars - Beloved
TTITLE15=Utopians - Along My Lonely Way
TTITLE16=Four Buddies - Just Enough of Your Love
TTITLE17=Raindrops - I Remember In The Still Of The Night
TTITLE18=Dorothy Shay and Group - Hunky Dory
TTITLE19=Five Keys - Come Go My Ball, Louise
TTITLE20=Aladdins - Cry, Cry, Baby
TTITLE21=Viceroys - Earth Angel
TTITLE22=Hawks - These Blues
TTITLE23=Dukes - Shimmies and The Shakes
TTITLE24=Barons - Cryin' For My Baby
TTITLE25=Barons - So Long, My Darling
TTITLE26=Aladdins - All Of My Life
TTITLE27=Aladdins - So Long, Farewell, Bye Bye
EXTD=
EXTT0=
EXTT1=
EXTT2=
EXTT3=
EXTT4=
EXTT5=
EXTT6=
EXTT7=
EXTT8=
EXTT9=
EXTT10=
EXTT11=
EXTT12=
EXTT13=
EXTT14=
EXTT15=
EXTT16=
EXTT17=
EXTT18=
EXTT19=
EXTT20=
EXTT21=
EXTT22=
EXTT23=
EXTT24=
EXTT25=
EXTT26=
EXTT27=
PLAYORDER=
